<svg width="21" height="21" viewBox="0 0 21 21" fill="none" xmlns="http://www.w3.org/2000/svg">
<path d="M13.4768 18.375V12.2798H15.5181L15.8235 9.91025H13.4768V8.39825C13.4768 7.71225 13.6675 7.24413 14.651 7.24413H15.9057V5.12487C15.2983 5.06043 14.6878 5.02917 14.077 5.03125C12.2684 5.03125 11.0302 6.1355 11.0302 8.16375V9.91025H8.9845V12.2798H11.0302V18.375H3.5C3.26794 18.375 3.04538 18.2828 2.88128 18.1187C2.71719 17.9546 2.625 17.7321 2.625 17.5V3.5C2.625 3.26794 2.71719 3.04538 2.88128 2.88128C3.04538 2.71719 3.26794 2.625 3.5 2.625H17.5C17.7321 2.625 17.9546 2.71719 18.1187 2.88128C18.2828 3.04538 18.375 3.26794 18.375 3.5V17.5C18.375 17.7321 18.2828 17.9546 18.1187 18.1187C17.9546 18.2828 17.7321 18.375 17.5 18.375H13.4768Z" fill="#4461AD"/>
</svg>
